<mxfile host="app.diagrams.net" modified="2022-09-26T12:59:03.774Z" agent="5.0 (Macintosh; Intel Mac OS X 10_15_7) AppleWebKit/537.36 (KHTML, like Gecko) Chrome/105.0.0.0 Safari/537.36" etag="l4-Q_n5vdHmM2QoVlX7T" version="20.3.2" type="github">
  <diagram id="wZSC_Eq7MuPea1FxC2Ob" name="ページ1">
    <mxGraphModel dx="2088" dy="1906" grid="1" gridSize="10" guides="1" tooltips="1" connect="1" arrows="1" fold="1" page="1" pageScale="1" pageWidth="827" pageHeight="1169" math="0" shadow="0">
      <root>
        <mxCell id="0" />
        <mxCell id="1" parent="0" />
        <mxCell id="c9uANxBiNO0j3KV-kw1x-67" value="&lt;font color=&quot;#000000&quot; style=&quot;font-size: 11px;&quot;&gt;&lt;span style=&quot;font-size: 11px;&quot;&gt;②&lt;br&gt;krewdataで&lt;br&gt;宿番号に紐づくマイページURLを取得&lt;/span&gt;&lt;/font&gt;" style="text;html=1;align=center;verticalAlign=middle;resizable=0;points=[];autosize=1;strokeColor=none;fillColor=none;fontSize=11;fontColor=#7EA6E0;" vertex="1" parent="1">
          <mxGeometry x="1025" y="540" width="210" height="50" as="geometry" />
        </mxCell>
        <mxCell id="c9uANxBiNO0j3KV-kw1x-6" style="edgeStyle=orthogonalEdgeStyle;rounded=0;orthogonalLoop=1;jettySize=auto;html=1;entryX=0.5;entryY=0;entryDx=0;entryDy=0;" edge="1" parent="1" source="c9uANxBiNO0j3KV-kw1x-1" target="c9uANxBiNO0j3KV-kw1x-2">
          <mxGeometry relative="1" as="geometry" />
        </mxCell>
        <mxCell id="c9uANxBiNO0j3KV-kw1x-10" style="edgeStyle=orthogonalEdgeStyle;rounded=0;orthogonalLoop=1;jettySize=auto;html=1;entryX=0.5;entryY=0;entryDx=0;entryDy=0;" edge="1" parent="1" source="c9uANxBiNO0j3KV-kw1x-1" target="c9uANxBiNO0j3KV-kw1x-3">
          <mxGeometry relative="1" as="geometry" />
        </mxCell>
        <mxCell id="c9uANxBiNO0j3KV-kw1x-1" value="宿" style="shape=umlActor;verticalLabelPosition=bottom;verticalAlign=top;html=1;outlineConnect=0;" vertex="1" parent="1">
          <mxGeometry x="225" y="140" width="30" height="60" as="geometry" />
        </mxCell>
        <mxCell id="c9uANxBiNO0j3KV-kw1x-8" style="edgeStyle=orthogonalEdgeStyle;rounded=0;orthogonalLoop=1;jettySize=auto;html=1;exitX=1;exitY=0.5;exitDx=0;exitDy=0;" edge="1" parent="1" source="c9uANxBiNO0j3KV-kw1x-18">
          <mxGeometry relative="1" as="geometry">
            <mxPoint x="240" y="230" as="targetPoint" />
          </mxGeometry>
        </mxCell>
        <mxCell id="c9uANxBiNO0j3KV-kw1x-19" style="edgeStyle=orthogonalEdgeStyle;rounded=0;orthogonalLoop=1;jettySize=auto;html=1;entryX=0.5;entryY=0;entryDx=0;entryDy=0;" edge="1" parent="1" source="c9uANxBiNO0j3KV-kw1x-2" target="c9uANxBiNO0j3KV-kw1x-18">
          <mxGeometry relative="1" as="geometry" />
        </mxCell>
        <mxCell id="c9uANxBiNO0j3KV-kw1x-2" value="マイページ作成受付フォーム" style="rounded=0;whiteSpace=wrap;html=1;fillColor=#dae8fc;strokeColor=#6c8ebf;" vertex="1" parent="1">
          <mxGeometry x="70" y="290" width="120" height="60" as="geometry" />
        </mxCell>
        <mxCell id="c9uANxBiNO0j3KV-kw1x-34" style="edgeStyle=orthogonalEdgeStyle;rounded=0;orthogonalLoop=1;jettySize=auto;html=1;entryX=1;entryY=0.5;entryDx=0;entryDy=0;fontColor=#97D077;exitX=0.5;exitY=1;exitDx=0;exitDy=0;" edge="1" parent="1" source="c9uANxBiNO0j3KV-kw1x-3" target="c9uANxBiNO0j3KV-kw1x-4">
          <mxGeometry relative="1" as="geometry" />
        </mxCell>
        <mxCell id="c9uANxBiNO0j3KV-kw1x-3" value="対象外申請フォーム" style="rounded=0;whiteSpace=wrap;html=1;fillColor=#dae8fc;strokeColor=#6c8ebf;" vertex="1" parent="1">
          <mxGeometry x="450" y="280" width="120" height="60" as="geometry" />
        </mxCell>
        <mxCell id="c9uANxBiNO0j3KV-kw1x-4" value="マイページアプリ" style="rounded=0;whiteSpace=wrap;html=1;fillColor=#fff2cc;strokeColor=#d6b656;verticalAlign=top;" vertex="1" parent="1">
          <mxGeometry x="270" y="525" width="120" height="95" as="geometry" />
        </mxCell>
        <mxCell id="c9uANxBiNO0j3KV-kw1x-7" value="①&lt;br&gt;マイページ作成依頼" style="text;html=1;align=center;verticalAlign=middle;resizable=0;points=[];autosize=1;strokeColor=none;fillColor=none;fontStyle=1" vertex="1" parent="1">
          <mxGeometry x="-10" y="205" width="130" height="40" as="geometry" />
        </mxCell>
        <mxCell id="c9uANxBiNO0j3KV-kw1x-9" value="②-1&lt;br&gt;マイページURL送付&lt;br&gt;（フォームブリッジ 自動返信機能）" style="text;html=1;align=center;verticalAlign=middle;resizable=0;points=[];autosize=1;strokeColor=none;fillColor=none;fontColor=#EA6B66;fontStyle=1" vertex="1" parent="1">
          <mxGeometry x="230" y="250" width="220" height="60" as="geometry" />
        </mxCell>
        <mxCell id="c9uANxBiNO0j3KV-kw1x-11" value="③&lt;br&gt;対象外申請" style="text;html=1;align=center;verticalAlign=middle;resizable=0;points=[];autosize=1;strokeColor=none;fillColor=none;fontStyle=1;fontColor=#7EA6E0;" vertex="1" parent="1">
          <mxGeometry x="550" y="205" width="80" height="40" as="geometry" />
        </mxCell>
        <mxCell id="c9uANxBiNO0j3KV-kw1x-20" style="edgeStyle=orthogonalEdgeStyle;rounded=0;orthogonalLoop=1;jettySize=auto;html=1;" edge="1" parent="1" source="c9uANxBiNO0j3KV-kw1x-18">
          <mxGeometry relative="1" as="geometry">
            <mxPoint x="-20" y="540" as="targetPoint" />
          </mxGeometry>
        </mxCell>
        <mxCell id="c9uANxBiNO0j3KV-kw1x-26" style="edgeStyle=orthogonalEdgeStyle;rounded=0;orthogonalLoop=1;jettySize=auto;html=1;entryX=0.5;entryY=0;entryDx=0;entryDy=0;" edge="1" parent="1" source="c9uANxBiNO0j3KV-kw1x-18" target="c9uANxBiNO0j3KV-kw1x-4">
          <mxGeometry relative="1" as="geometry" />
        </mxCell>
        <mxCell id="c9uANxBiNO0j3KV-kw1x-18" value="重複有無判定" style="shape=rhombus;double=1;perimeter=rhombusPerimeter;whiteSpace=wrap;html=1;align=center;" vertex="1" parent="1">
          <mxGeometry x="70" y="395" width="120" height="60" as="geometry" />
        </mxCell>
        <mxCell id="c9uANxBiNO0j3KV-kw1x-21" value="重複ありの場合" style="text;html=1;align=center;verticalAlign=middle;resizable=0;points=[];autosize=1;strokeColor=none;fillColor=none;fontColor=#97D077;fontStyle=1" vertex="1" parent="1">
          <mxGeometry x="-130" y="440" width="110" height="30" as="geometry" />
        </mxCell>
        <mxCell id="c9uANxBiNO0j3KV-kw1x-27" value="重複なしの場合" style="text;html=1;align=center;verticalAlign=middle;resizable=0;points=[];autosize=1;strokeColor=none;fillColor=none;fontColor=#EA6B66;fontStyle=1" vertex="1" parent="1">
          <mxGeometry x="250" y="380" width="110" height="30" as="geometry" />
        </mxCell>
        <mxCell id="c9uANxBiNO0j3KV-kw1x-29" value="前提&lt;br&gt;&lt;br&gt;①マイページアプリに「宿番号の重複禁止」を設定&lt;br&gt;" style="whiteSpace=wrap;html=1;aspect=fixed;" vertex="1" parent="1">
          <mxGeometry x="-230" y="150" width="180" height="180" as="geometry" />
        </mxCell>
        <mxCell id="c9uANxBiNO0j3KV-kw1x-31" value="&lt;span style=&quot;text-align: left;&quot;&gt;②-2&lt;br&gt;アプリにデータ登録&lt;br&gt;&lt;font&gt;&lt;span&gt;(マイページURLも一緒に)&lt;/span&gt;&lt;/font&gt;&lt;br&gt;&lt;/span&gt;" style="text;html=1;align=center;verticalAlign=middle;resizable=0;points=[];autosize=1;strokeColor=none;fillColor=none;fontColor=#EA6B66;fontStyle=1" vertex="1" parent="1">
          <mxGeometry x="170" y="440" width="160" height="60" as="geometry" />
        </mxCell>
        <mxCell id="c9uANxBiNO0j3KV-kw1x-32" value="②&lt;br&gt;重複禁止でエラーを返すため、&lt;br&gt;どこにも登録されない" style="text;html=1;align=center;verticalAlign=middle;resizable=0;points=[];autosize=1;strokeColor=none;fillColor=none;fontColor=#97D077;fontStyle=1" vertex="1" parent="1">
          <mxGeometry x="-120" y="535" width="190" height="60" as="geometry" />
        </mxCell>
        <mxCell id="c9uANxBiNO0j3KV-kw1x-35" value="③&lt;br&gt;データ登録" style="text;html=1;align=center;verticalAlign=middle;resizable=0;points=[];autosize=1;strokeColor=none;fillColor=none;fontStyle=1;fontColor=#7EA6E0;" vertex="1" parent="1">
          <mxGeometry x="540" y="435" width="80" height="40" as="geometry" />
        </mxCell>
        <mxCell id="c9uANxBiNO0j3KV-kw1x-36" value="&lt;b&gt;&lt;font style=&quot;font-size: 28px;&quot;&gt;基本&lt;/font&gt;&lt;/b&gt;" style="rounded=1;whiteSpace=wrap;html=1;fontColor=#7EA6E0;" vertex="1" parent="1">
          <mxGeometry x="-210" y="20" width="720" height="60" as="geometry" />
        </mxCell>
        <mxCell id="c9uANxBiNO0j3KV-kw1x-37" value="" style="endArrow=none;html=1;rounded=0;fontSize=28;fontColor=#7EA6E0;strokeWidth=7;dashed=1;" edge="1" parent="1">
          <mxGeometry width="50" height="50" relative="1" as="geometry">
            <mxPoint x="700" y="740" as="sourcePoint" />
            <mxPoint x="700" as="targetPoint" />
          </mxGeometry>
        </mxCell>
        <mxCell id="c9uANxBiNO0j3KV-kw1x-38" style="edgeStyle=orthogonalEdgeStyle;rounded=0;orthogonalLoop=1;jettySize=auto;html=1;entryX=0.5;entryY=0;entryDx=0;entryDy=0;" edge="1" parent="1" source="c9uANxBiNO0j3KV-kw1x-40" target="c9uANxBiNO0j3KV-kw1x-43">
          <mxGeometry relative="1" as="geometry" />
        </mxCell>
        <mxCell id="c9uANxBiNO0j3KV-kw1x-39" style="edgeStyle=orthogonalEdgeStyle;rounded=0;orthogonalLoop=1;jettySize=auto;html=1;entryX=0.5;entryY=0;entryDx=0;entryDy=0;" edge="1" parent="1" source="c9uANxBiNO0j3KV-kw1x-40" target="c9uANxBiNO0j3KV-kw1x-45">
          <mxGeometry relative="1" as="geometry" />
        </mxCell>
        <mxCell id="c9uANxBiNO0j3KV-kw1x-40" value="宿" style="shape=umlActor;verticalLabelPosition=bottom;verticalAlign=top;html=1;outlineConnect=0;" vertex="1" parent="1">
          <mxGeometry x="1205" y="140" width="30" height="60" as="geometry" />
        </mxCell>
        <mxCell id="c9uANxBiNO0j3KV-kw1x-41" style="edgeStyle=orthogonalEdgeStyle;rounded=0;orthogonalLoop=1;jettySize=auto;html=1;exitX=1;exitY=0.5;exitDx=0;exitDy=0;" edge="1" parent="1" source="c9uANxBiNO0j3KV-kw1x-52">
          <mxGeometry relative="1" as="geometry">
            <mxPoint x="1220" y="230" as="targetPoint" />
          </mxGeometry>
        </mxCell>
        <mxCell id="c9uANxBiNO0j3KV-kw1x-42" style="edgeStyle=orthogonalEdgeStyle;rounded=0;orthogonalLoop=1;jettySize=auto;html=1;entryX=0.5;entryY=0;entryDx=0;entryDy=0;" edge="1" parent="1" source="c9uANxBiNO0j3KV-kw1x-43" target="c9uANxBiNO0j3KV-kw1x-52">
          <mxGeometry relative="1" as="geometry" />
        </mxCell>
        <mxCell id="c9uANxBiNO0j3KV-kw1x-43" value="マイページ作成受付フォーム" style="rounded=0;whiteSpace=wrap;html=1;fillColor=#dae8fc;strokeColor=#6c8ebf;" vertex="1" parent="1">
          <mxGeometry x="1050" y="290" width="120" height="60" as="geometry" />
        </mxCell>
        <mxCell id="c9uANxBiNO0j3KV-kw1x-44" style="edgeStyle=orthogonalEdgeStyle;rounded=0;orthogonalLoop=1;jettySize=auto;html=1;entryX=1;entryY=0.5;entryDx=0;entryDy=0;fontColor=#97D077;exitX=0.5;exitY=1;exitDx=0;exitDy=0;" edge="1" parent="1" source="c9uANxBiNO0j3KV-kw1x-45" target="c9uANxBiNO0j3KV-kw1x-46">
          <mxGeometry relative="1" as="geometry" />
        </mxCell>
        <mxCell id="c9uANxBiNO0j3KV-kw1x-45" value="対象外申請フォーム" style="rounded=0;whiteSpace=wrap;html=1;fillColor=#dae8fc;strokeColor=#6c8ebf;" vertex="1" parent="1">
          <mxGeometry x="1430" y="280" width="120" height="60" as="geometry" />
        </mxCell>
        <mxCell id="c9uANxBiNO0j3KV-kw1x-46" value="マイページアプリ" style="rounded=0;whiteSpace=wrap;html=1;fillColor=#fff2cc;strokeColor=#d6b656;verticalAlign=top;" vertex="1" parent="1">
          <mxGeometry x="1250" y="525" width="120" height="95" as="geometry" />
        </mxCell>
        <mxCell id="c9uANxBiNO0j3KV-kw1x-47" value="①&lt;br&gt;マイページ作成依頼" style="text;html=1;align=center;verticalAlign=middle;resizable=0;points=[];autosize=1;strokeColor=none;fillColor=none;fontStyle=1" vertex="1" parent="1">
          <mxGeometry x="970" y="205" width="130" height="40" as="geometry" />
        </mxCell>
        <mxCell id="c9uANxBiNO0j3KV-kw1x-48" value="②-1&lt;br&gt;マイページURL送付&lt;br&gt;（フォームブリッジ 自動返信機能）" style="text;html=1;align=center;verticalAlign=middle;resizable=0;points=[];autosize=1;strokeColor=none;fillColor=none;fontColor=#EA6B66;fontStyle=1" vertex="1" parent="1">
          <mxGeometry x="1210" y="250" width="220" height="60" as="geometry" />
        </mxCell>
        <mxCell id="c9uANxBiNO0j3KV-kw1x-49" value="③&lt;br&gt;対象外申請" style="text;html=1;align=center;verticalAlign=middle;resizable=0;points=[];autosize=1;strokeColor=none;fillColor=none;fontStyle=1;fontColor=#7EA6E0;" vertex="1" parent="1">
          <mxGeometry x="1530" y="205" width="80" height="40" as="geometry" />
        </mxCell>
        <mxCell id="c9uANxBiNO0j3KV-kw1x-50" style="edgeStyle=orthogonalEdgeStyle;rounded=0;orthogonalLoop=1;jettySize=auto;html=1;entryX=0.5;entryY=0;entryDx=0;entryDy=0;" edge="1" parent="1" source="c9uANxBiNO0j3KV-kw1x-52" target="c9uANxBiNO0j3KV-kw1x-62">
          <mxGeometry relative="1" as="geometry">
            <mxPoint x="960" y="540" as="targetPoint" />
          </mxGeometry>
        </mxCell>
        <mxCell id="c9uANxBiNO0j3KV-kw1x-51" style="edgeStyle=orthogonalEdgeStyle;rounded=0;orthogonalLoop=1;jettySize=auto;html=1;entryX=0.5;entryY=0;entryDx=0;entryDy=0;" edge="1" parent="1" source="c9uANxBiNO0j3KV-kw1x-52" target="c9uANxBiNO0j3KV-kw1x-46">
          <mxGeometry relative="1" as="geometry" />
        </mxCell>
        <mxCell id="c9uANxBiNO0j3KV-kw1x-52" value="重複有無判定" style="shape=rhombus;double=1;perimeter=rhombusPerimeter;whiteSpace=wrap;html=1;align=center;" vertex="1" parent="1">
          <mxGeometry x="1050" y="395" width="120" height="60" as="geometry" />
        </mxCell>
        <mxCell id="c9uANxBiNO0j3KV-kw1x-53" value="重複ありの場合" style="text;html=1;align=center;verticalAlign=middle;resizable=0;points=[];autosize=1;strokeColor=none;fillColor=none;fontColor=#97D077;fontStyle=1" vertex="1" parent="1">
          <mxGeometry x="850" y="440" width="110" height="30" as="geometry" />
        </mxCell>
        <mxCell id="c9uANxBiNO0j3KV-kw1x-56" value="前提&lt;br&gt;&lt;br&gt;①マイページアプリに「宿番号の重複禁止」を設定&lt;br&gt;&lt;br&gt;&lt;font color=&quot;#ea6b66&quot;&gt;&lt;b&gt;②重複申請してきた宿には、krewdataとklmailerを使って、URLを送る&lt;/b&gt;&lt;/font&gt;" style="whiteSpace=wrap;html=1;aspect=fixed;" vertex="1" parent="1">
          <mxGeometry x="750" y="150" width="180" height="180" as="geometry" />
        </mxCell>
        <mxCell id="c9uANxBiNO0j3KV-kw1x-59" value="③&lt;br&gt;データ登録" style="text;html=1;align=center;verticalAlign=middle;resizable=0;points=[];autosize=1;strokeColor=none;fillColor=none;fontStyle=1;fontColor=#7EA6E0;" vertex="1" parent="1">
          <mxGeometry x="1520" y="435" width="80" height="40" as="geometry" />
        </mxCell>
        <mxCell id="c9uANxBiNO0j3KV-kw1x-60" value="&lt;span style=&quot;font-size: 28px;&quot;&gt;&lt;b&gt;マイページ作成を二重申請してきた宿に対してフォローする場合&lt;/b&gt;&lt;/span&gt;" style="rounded=1;whiteSpace=wrap;html=1;fontColor=#7EA6E0;" vertex="1" parent="1">
          <mxGeometry x="770" width="720" height="80" as="geometry" />
        </mxCell>
        <mxCell id="c9uANxBiNO0j3KV-kw1x-66" style="edgeStyle=orthogonalEdgeStyle;rounded=0;orthogonalLoop=1;jettySize=auto;html=1;entryX=-0.005;entryY=0.62;entryDx=0;entryDy=0;entryPerimeter=0;strokeWidth=1;fontSize=28;fontColor=#7EA6E0;" edge="1" parent="1" source="c9uANxBiNO0j3KV-kw1x-62" target="c9uANxBiNO0j3KV-kw1x-46">
          <mxGeometry relative="1" as="geometry" />
        </mxCell>
        <mxCell id="c9uANxBiNO0j3KV-kw1x-70" style="edgeStyle=orthogonalEdgeStyle;rounded=0;orthogonalLoop=1;jettySize=auto;html=1;strokeWidth=1;fontSize=11;fontColor=#000000;" edge="1" parent="1" source="c9uANxBiNO0j3KV-kw1x-62" target="c9uANxBiNO0j3KV-kw1x-71">
          <mxGeometry relative="1" as="geometry">
            <mxPoint x="960" y="690" as="targetPoint" />
          </mxGeometry>
        </mxCell>
        <mxCell id="c9uANxBiNO0j3KV-kw1x-62" value="二重申請アプリ&lt;br&gt;&lt;br&gt;用途&lt;br&gt;二重申請のあった宿を登録" style="rounded=0;whiteSpace=wrap;html=1;fillColor=#fff2cc;strokeColor=#d6b656;verticalAlign=top;" vertex="1" parent="1">
          <mxGeometry x="900" y="540" width="120" height="95" as="geometry" />
        </mxCell>
        <mxCell id="c9uANxBiNO0j3KV-kw1x-71" value="&lt;font color=&quot;#000000&quot; style=&quot;font-size: 11px;&quot;&gt;&lt;span style=&quot;font-size: 11px;&quot;&gt;③&lt;br&gt;②でアプリにURLのデータが格納されたことをトリガーに、&lt;br&gt;kmailerでURLを送信&lt;br&gt;&lt;/span&gt;&lt;/font&gt;" style="text;html=1;align=center;verticalAlign=middle;resizable=0;points=[];autosize=1;strokeColor=none;fillColor=none;fontSize=11;fontColor=#7EA6E0;" vertex="1" parent="1">
          <mxGeometry x="800" y="710" width="320" height="50" as="geometry" />
        </mxCell>
        <mxCell id="c9uANxBiNO0j3KV-kw1x-72" value="" style="rounded=1;whiteSpace=wrap;html=1;fontSize=11;fontColor=#000000;fillColor=none;strokeColor=#EA6B66;strokeWidth=4;dashed=1;" vertex="1" parent="1">
          <mxGeometry x="730" y="375" width="510" height="415" as="geometry" />
        </mxCell>
        <mxCell id="c9uANxBiNO0j3KV-kw1x-73" value="ここの部分の話" style="text;html=1;strokeColor=none;fillColor=none;align=center;verticalAlign=middle;whiteSpace=wrap;rounded=0;dashed=1;strokeWidth=4;fontSize=21;fontColor=#EA6B66;fontStyle=5" vertex="1" parent="1">
          <mxGeometry x="750" y="390" width="180" height="30" as="geometry" />
        </mxCell>
        <mxCell id="c9uANxBiNO0j3KV-kw1x-74" value="Text" style="text;html=1;strokeColor=none;fillColor=none;align=center;verticalAlign=middle;whiteSpace=wrap;rounded=0;dashed=1;strokeWidth=4;fontSize=11;fontColor=#000000;" vertex="1" parent="1">
          <mxGeometry x="590" y="660" width="60" height="30" as="geometry" />
        </mxCell>
      </root>
    </mxGraphModel>
  </diagram>
</mxfile>
